<svg width="43" height="79" viewBox="0 0 43 79" xmlns="http://www.w3.org/2000/svg"><title>Education Graphic</title><g fill="none" fill-rule="evenodd"><path d="M2.017 73.136a39.444 39.444 0 0 0 20.058 5.462c7 0 13.58-1.829 19.296-5.024V54.832c0-4.407-1.968-8.37-5.057-11.08 3.923-3.813 6.37-9.138 6.37-15.042 0-9.065-5.747-16.787-13.795-19.724-.369-.134-6.817 2.506-7.194 2.391-1.924-.58-4.846-3.229-7.05-2.443C6.522 11.83.706 19.59.706 28.71c0 5.904 2.446 11.229 6.37 15.043-3.09 2.71-5.058 6.672-5.058 11.08v18.303z" fill="#F06724"/><path d="M15.935 25.581a1.838 1.838 0 1 1-3.677 0 1.838 1.838 0 0 1 3.677 0m15.631 0a1.838 1.838 0 1 1-3.677 0 1.838 1.838 0 0 1 3.677 0m-17.47 6.743s.277 5.258 7.662 5.258c7.386 0 7.968-5.258 7.968-5.258" fill="#FEFEFE"/><path d="M22.207 16.714l7.166-3.071a.756.756 0 0 0 .457-.694V8.227l-7.815 2.233a.38.38 0 0 1-.207 0l-7.815-2.233v4.722c0 .301.179.575.457.694l7.164 3.07a.747.747 0 0 0 .593 0m-.192-7.067l14.466-4.134a.376.376 0 0 0 0-.725L22.015.653a.38.38 0 0 0-.207 0L7.341 4.787a.377.377 0 0 0 0 .725l3.258.93v6.35a.753.753 0 0 0-.157 1.186l.028.03c-.418.32-.627.947-.627.947l-.376 2.262s.754.755 1.508.755 1.509-.755 1.509-.755l-.378-2.262s-.208-.627-.627-.947l.03-.029a.753.753 0 0 0-.157-1.186V6.658l10.456 2.988a.38.38 0 0 0 .207 0" fill="#221F20"/><path d="M14.096 9.305l7.815 1.666" fill="#F06724"/></g></svg>