<svg id="Layer_1" xmlns="http://www.w3.org/2000/svg" viewBox="0 0 300 300"><style>.st0{fill:#fff}.st1{fill:#d0d2d3}</style><path class="st0" d="M-.5 0v300h300V0H-.5zM274 275.5H24v-250h250v250z"/><path class="st0" d="M113 185.4l-.1 52.6H95V62h17.9v93.1L182.6 62h22.5"/><path class="st1" d="M165.4 223.4l26.8-42.5c8.6-13.6 12.9-24.9 12.9-33.9 0-9.7-3.2-17.1-9.7-22.4-5.8-4.8-13.7-7.4-23.6-7.9L160.9 132c2.5-.9 5.7-1.5 8.4-1.5 12.4 0 18.6 5.5 18.6 16.5 0 8.4-3.9 18.5-11.7 30.5l-37.4 57.2v3.3h50.9v-14.7h-24.3z"/></svg>