<svg width="42" height="72" viewBox="0 0 42 72" xmlns="http://www.w3.org/2000/svg" xmlns:xlink="http://www.w3.org/1999/xlink"><title>Occupation Graphic</title><defs><path id="a" d="M0 .606h103.434V103H0"/></defs><g fill="none" fill-rule="evenodd"><path d="M1.71 47.17v19.128a39.065 39.065 0 0 0 19.864 5.41 39.07 39.07 0 0 0 19.112-4.976V47.17c0-4.365-1.95-8.289-5.01-10.973 3.885-3.777 6.308-9.05 6.308-14.898C41.984 9.82 32.678.512 21.197.512 9.717.512.41 9.818.41 21.3c0 5.847 2.423 11.121 6.308 14.898-3.06 2.684-5.009 6.608-5.009 10.973" fill="#F06724"/><g transform="translate(-30 -19)"><mask id="b" fill="#fff"><use xlink:href="#a"/></mask><path d="M51.717 5.684c-25.689 0-46.587 20.69-46.587 46.12 0 25.428 20.898 46.117 46.587 46.117 25.687 0 46.586-20.689 46.586-46.118 0-25.43-20.899-46.119-46.586-46.119m0 97.316C23.2 103 0 80.032 0 51.803 0 23.573 23.2.605 51.717.605c28.516 0 51.716 22.967 51.716 51.198 0 28.23-23.2 51.197-51.716 51.197" mask="url(#b)"/></g><path d="M29.042 23.63a4.155 4.155 0 0 1-4.151-4.15 4.156 4.156 0 0 1 4.15-4.15 4.156 4.156 0 0 1 4.152 4.15 4.155 4.155 0 0 1-4.151 4.15m-15.694 0a4.155 4.155 0 0 1-4.151-4.15 4.156 4.156 0 0 1 4.151-4.15 4.156 4.156 0 0 1 4.151 4.15 4.155 4.155 0 0 1-4.151 4.15" fill="#FEFEFE"/><path d="M29.054 23.673a4.155 4.155 0 0 1-4.15-4.15 4.156 4.156 0 0 1 4.15-4.15 4.156 4.156 0 0 1 4.151 4.15 4.156 4.156 0 0 1-4.15 4.15m-15.716 0a4.154 4.154 0 0 1-4.15-4.15 4.155 4.155 0 0 1 4.15-4.15 4.156 4.156 0 0 1 4.151 4.15 4.155 4.155 0 0 1-4.15 4.15m15.714-9.565c-2.477 0-4.565 1.673-5.207 3.947a6.066 6.066 0 0 0-5.263.144c-.593-2.346-2.716-4.09-5.245-4.09a5.42 5.42 0 0 0-5.414 5.414 5.42 5.42 0 0 0 5.414 5.414 5.419 5.419 0 0 0 5.413-5.376 4.802 4.802 0 0 1 4.895-.197c0 .053-.007.105-.007.16a5.42 5.42 0 0 0 5.414 5.413 5.42 5.42 0 0 0 5.415-5.414 5.422 5.422 0 0 0-5.415-5.415" fill="#030404"/><path d="M27.913 25.88a.4.4 0 0 0-.404.388l-.002.03c-.021.304-.157.663-.68.663-.213 0-.62-.505-.917-.874-.568-.707-1.212-1.507-2.114-1.507-1.104 0-2.184.426-2.598.609-.415-.183-1.495-.61-2.6-.61-.901 0-1.545.8-2.113 1.508-.297.369-.704.874-.917.874-.523 0-.66-.36-.68-.663l-.002-.03a.398.398 0 0 0-.4-.387h-.004a.403.403 0 0 0-.394.465c.024.45.219 2.674 1.755 3.134a5.59 5.59 0 0 0 1.594.24c1.328 0 2.52-.518 3.273-1.422a6.14 6.14 0 0 0 .488-.666c.122.197.28.418.486.666.753.904 1.946 1.422 3.274 1.422a5.59 5.59 0 0 0 1.594-.24c1.536-.46 1.73-2.684 1.754-3.134.004-.043.003-.067.003-.067a.401.401 0 0 0-.396-.398m-3.167 12.826h-7.098l3.211 2.147-3.184 14.409 3.495 8.469 3.55-8.47-3.185-14.408z" fill="#FEFEFE"/></g></svg>